<mxfile host="app.diagrams.net" agent="Mozilla/5.0 (Windows NT 10.0; Win64; x64) AppleWebKit/537.36 (KHTML, like Gecko) Chrome/129.0.0.0 Safari/537.36" version="24.7.16">
  <diagram name="Page-1" id="sQh8_tuz5hVqp2HK1OOi">
    <mxGraphModel dx="1834" dy="1212" grid="0" gridSize="10" guides="1" tooltips="1" connect="1" arrows="1" fold="1" page="0" pageScale="1" pageWidth="850" pageHeight="1100" math="0" shadow="0">
      <root>
        <mxCell id="0" />
        <mxCell id="1" parent="0" />
        <mxCell id="vo71ZsBOp8VPdSGQfIhG-1" value="Order Fact" style="swimlane;childLayout=stackLayout;horizontal=1;startSize=50;horizontalStack=0;rounded=1;fontSize=14;fontStyle=0;strokeWidth=2;resizeParent=0;resizeLast=1;shadow=0;dashed=0;align=center;arcSize=4;whiteSpace=wrap;html=1;" parent="1" vertex="1">
          <mxGeometry x="-240" y="-348" width="264" height="239" as="geometry">
            <mxRectangle x="-306" y="-266.5" width="102" height="50" as="alternateBounds" />
          </mxGeometry>
        </mxCell>
        <mxCell id="vo71ZsBOp8VPdSGQfIhG-2" value="&lt;div style=&quot;text-wrap: wrap;&quot;&gt;PK Order_id&amp;nbsp;&lt;/div&gt;&lt;div style=&quot;text-wrap: wrap;&quot;&gt;&lt;span style=&quot;background-color: initial;&quot;&gt;customer_id&lt;/span&gt;&lt;/div&gt;&lt;div style=&quot;text-wrap: wrap;&quot;&gt;date_id&lt;/div&gt;&lt;div style=&quot;text-wrap: wrap;&quot;&gt;staff_id&lt;/div&gt;&lt;div style=&quot;text-wrap: wrap;&quot;&gt;store_id&lt;/div&gt;&lt;div style=&quot;text-wrap: wrap;&quot;&gt;product_id&lt;/div&gt;&lt;div style=&quot;text-wrap: wrap;&quot;&gt;ordered_date&lt;/div&gt;&lt;div style=&quot;text-wrap: wrap;&quot;&gt;required_date&lt;/div&gt;&lt;div style=&quot;text-wrap: wrap;&quot;&gt;shipped_date&lt;/div&gt;&lt;div style=&quot;text-wrap: wrap;&quot;&gt;order_quantity&lt;/div&gt;&lt;div style=&quot;text-wrap: wrap;&quot;&gt;list_price&lt;/div&gt;&lt;div style=&quot;text-wrap: wrap;&quot;&gt;discount&lt;/div&gt;" style="align=center;strokeColor=none;fillColor=none;spacingLeft=4;fontSize=12;verticalAlign=top;resizable=0;rotatable=0;part=1;html=1;" parent="vo71ZsBOp8VPdSGQfIhG-1" vertex="1">
          <mxGeometry y="50" width="264" height="189" as="geometry" />
        </mxCell>
        <mxCell id="vo71ZsBOp8VPdSGQfIhG-7" value="Staff_DIM" style="swimlane;childLayout=stackLayout;horizontal=1;startSize=50;horizontalStack=0;rounded=1;fontSize=14;fontStyle=0;strokeWidth=2;resizeParent=0;resizeLast=1;shadow=0;dashed=0;align=center;arcSize=4;whiteSpace=wrap;html=1;" parent="1" vertex="1">
          <mxGeometry x="-658" y="-528" width="210" height="205" as="geometry" />
        </mxCell>
        <mxCell id="vo71ZsBOp8VPdSGQfIhG-8" value="&lt;div&gt;&lt;span style=&quot;text-wrap: wrap; background-color: initial;&quot;&gt;PK staff_id&lt;/span&gt;&lt;br&gt;&lt;/div&gt;&lt;div&gt;&lt;div style=&quot;text-wrap: wrap;&quot;&gt;FKfirst_name&lt;/div&gt;&lt;div style=&quot;text-wrap: wrap;&quot;&gt;FKlast_name&lt;/div&gt;&lt;div style=&quot;text-wrap: wrap;&quot;&gt;FKemial&lt;/div&gt;&lt;div style=&quot;text-wrap: wrap;&quot;&gt;FKphone&lt;/div&gt;&lt;div style=&quot;text-wrap: wrap;&quot;&gt;FKactive&lt;/div&gt;&lt;div style=&quot;text-wrap: wrap;&quot;&gt;FKstore_id&lt;/div&gt;&lt;div style=&quot;text-wrap: wrap;&quot;&gt;FKmanager_id&lt;/div&gt;&lt;/div&gt;" style="align=center;strokeColor=none;fillColor=none;spacingLeft=4;fontSize=12;verticalAlign=top;resizable=0;rotatable=0;part=1;html=1;" parent="vo71ZsBOp8VPdSGQfIhG-7" vertex="1">
          <mxGeometry y="50" width="210" height="155" as="geometry" />
        </mxCell>
        <mxCell id="vo71ZsBOp8VPdSGQfIhG-9" value="Date DIM" style="swimlane;childLayout=stackLayout;horizontal=1;startSize=50;horizontalStack=0;rounded=1;fontSize=14;fontStyle=0;strokeWidth=2;resizeParent=0;resizeLast=1;shadow=0;dashed=0;align=center;arcSize=4;whiteSpace=wrap;html=1;" parent="1" vertex="1">
          <mxGeometry x="151" y="15" width="190" height="163" as="geometry" />
        </mxCell>
        <mxCell id="vo71ZsBOp8VPdSGQfIhG-10" value="&lt;div&gt;&lt;span style=&quot;text-wrap: wrap; background-color: initial;&quot;&gt;PKdate_id&lt;/span&gt;&lt;br&gt;&lt;/div&gt;&lt;div&gt;&lt;div style=&quot;text-wrap: wrap;&quot;&gt;day&lt;/div&gt;&lt;div style=&quot;text-wrap: wrap;&quot;&gt;month&lt;/div&gt;&lt;div style=&quot;text-wrap: wrap;&quot;&gt;quarter&lt;/div&gt;&lt;div style=&quot;text-wrap: wrap;&quot;&gt;year&lt;/div&gt;&lt;/div&gt;&lt;div style=&quot;text-wrap: wrap;&quot;&gt;date&lt;/div&gt;" style="align=center;strokeColor=none;fillColor=none;spacingLeft=4;fontSize=12;verticalAlign=top;resizable=0;rotatable=0;part=1;html=1;" parent="vo71ZsBOp8VPdSGQfIhG-9" vertex="1">
          <mxGeometry y="50" width="190" height="113" as="geometry" />
        </mxCell>
        <mxCell id="vo71ZsBOp8VPdSGQfIhG-11" value="&lt;div&gt;&lt;br&gt;&lt;/div&gt;&lt;div&gt;Customer Dim&lt;/div&gt;" style="swimlane;childLayout=stackLayout;horizontal=1;startSize=50;horizontalStack=0;rounded=1;fontSize=14;fontStyle=0;strokeWidth=2;resizeParent=0;resizeLast=1;shadow=0;dashed=0;align=center;arcSize=4;whiteSpace=wrap;html=1;" parent="1" vertex="1">
          <mxGeometry x="-700" y="-150" width="175" height="215" as="geometry" />
        </mxCell>
        <mxCell id="vo71ZsBOp8VPdSGQfIhG-12" value="&lt;div style=&quot;text-wrap: wrap;&quot;&gt;&lt;span style=&quot;background-color: initial;&quot;&gt;PKcustomer_id&lt;/span&gt;&lt;br&gt;&lt;/div&gt;&lt;div style=&quot;text-wrap: wrap;&quot;&gt;first_name&lt;/div&gt;&lt;div style=&quot;text-wrap: wrap;&quot;&gt;last_name&lt;/div&gt;&lt;div style=&quot;text-wrap: wrap;&quot;&gt;&amp;nbsp;email&lt;/div&gt;&lt;div style=&quot;text-wrap: wrap;&quot;&gt;phone&lt;/div&gt;&lt;div style=&quot;text-wrap: wrap;&quot;&gt;&amp;nbsp;street&lt;/div&gt;&lt;div style=&quot;text-wrap: wrap;&quot;&gt;city&lt;/div&gt;&lt;div style=&quot;text-wrap: wrap;&quot;&gt;&amp;nbsp;state&lt;/div&gt;&lt;div style=&quot;text-wrap: wrap;&quot;&gt;&lt;span style=&quot;background-color: initial;&quot;&gt;zip_code&lt;/span&gt;&lt;/div&gt;" style="align=center;strokeColor=none;fillColor=none;spacingLeft=4;fontSize=12;verticalAlign=top;resizable=0;rotatable=0;part=1;html=1;" parent="vo71ZsBOp8VPdSGQfIhG-11" vertex="1">
          <mxGeometry y="50" width="175" height="165" as="geometry" />
        </mxCell>
        <mxCell id="vo71ZsBOp8VPdSGQfIhG-13" value="Store Dim" style="swimlane;childLayout=stackLayout;horizontal=1;startSize=50;horizontalStack=0;rounded=1;fontSize=14;fontStyle=0;strokeWidth=2;resizeParent=0;resizeLast=1;shadow=0;dashed=0;align=center;arcSize=4;whiteSpace=wrap;html=1;" parent="1" vertex="1">
          <mxGeometry x="119" y="-522" width="211" height="191" as="geometry" />
        </mxCell>
        <mxCell id="vo71ZsBOp8VPdSGQfIhG-14" value="&lt;div&gt;&lt;span style=&quot;background-color: initial;&quot;&gt;PKstore_id&lt;/span&gt;&lt;/div&gt;&lt;div&gt;store_name&lt;/div&gt;&lt;div&gt;phone&lt;/div&gt;&lt;div&gt;email&lt;/div&gt;&lt;div&gt;street&lt;/div&gt;&lt;div&gt;city&lt;/div&gt;&lt;div&gt;state&lt;/div&gt;&lt;div&gt;zip_code&lt;/div&gt;&lt;div&gt;&lt;br style=&quot;text-wrap: wrap;&quot;&gt;&lt;/div&gt;" style="align=center;strokeColor=none;fillColor=none;spacingLeft=4;fontSize=12;verticalAlign=top;resizable=0;rotatable=0;part=1;html=1;" parent="vo71ZsBOp8VPdSGQfIhG-13" vertex="1">
          <mxGeometry y="50" width="211" height="141" as="geometry" />
        </mxCell>
        <mxCell id="vo71ZsBOp8VPdSGQfIhG-16" value="Stocks Fact" style="swimlane;childLayout=stackLayout;horizontal=1;startSize=50;horizontalStack=0;rounded=1;fontSize=14;fontStyle=0;strokeWidth=2;resizeParent=0;resizeLast=1;shadow=0;dashed=0;align=center;arcSize=4;whiteSpace=wrap;html=1;" parent="1" vertex="1">
          <mxGeometry x="563" y="-294" width="199" height="146" as="geometry" />
        </mxCell>
        <mxCell id="vo71ZsBOp8VPdSGQfIhG-17" value="&lt;span style=&quot;text-wrap: wrap; background-color: initial;&quot;&gt;PKstock_id&lt;/span&gt;&lt;div&gt;&lt;span style=&quot;text-wrap: wrap; background-color: initial;&quot;&gt;store_id&lt;/span&gt;&lt;div style=&quot;text-wrap: wrap;&quot;&gt;product_id&lt;/div&gt;&lt;div style=&quot;text-wrap: wrap;&quot;&gt;&lt;span style=&quot;background-color: initial;&quot;&gt;stock_quantity&lt;/span&gt;&lt;/div&gt;&lt;/div&gt;" style="align=center;strokeColor=none;fillColor=none;spacingLeft=4;fontSize=12;verticalAlign=top;resizable=0;rotatable=0;part=1;html=1;" parent="vo71ZsBOp8VPdSGQfIhG-16" vertex="1">
          <mxGeometry y="50" width="199" height="96" as="geometry" />
        </mxCell>
        <mxCell id="vo71ZsBOp8VPdSGQfIhG-23" value="Product Dim" style="swimlane;childLayout=stackLayout;horizontal=1;startSize=50;horizontalStack=0;rounded=1;fontSize=14;fontStyle=0;strokeWidth=2;resizeParent=0;resizeLast=1;shadow=0;dashed=0;align=center;arcSize=4;whiteSpace=wrap;html=1;" parent="1" vertex="1">
          <mxGeometry x="133" y="-246" width="215" height="199" as="geometry" />
        </mxCell>
        <mxCell id="vo71ZsBOp8VPdSGQfIhG-24" value="&lt;div style=&quot;text-wrap: wrap;&quot;&gt;&lt;span style=&quot;background-color: initial;&quot;&gt;PKproduct_id&lt;/span&gt;&lt;br&gt;&lt;/div&gt;&lt;div&gt;&lt;span style=&quot;text-wrap: wrap;&quot;&gt;product_name&lt;/span&gt;&lt;span style=&quot;text-wrap: wrap;&quot;&gt;&lt;br&gt;&lt;/span&gt;&lt;div style=&quot;text-wrap: wrap;&quot;&gt;category_id&lt;/div&gt;&lt;div style=&quot;text-wrap: wrap;&quot;&gt;category_name&lt;/div&gt;&lt;div style=&quot;text-wrap: wrap;&quot;&gt;brand_id&lt;/div&gt;&lt;div style=&quot;text-wrap: wrap;&quot;&gt;brand_name&lt;/div&gt;&lt;div style=&quot;text-wrap: wrap;&quot;&gt;model_year&lt;/div&gt;&lt;div style=&quot;text-wrap: wrap;&quot;&gt;list_price&lt;/div&gt;&lt;/div&gt;" style="align=center;strokeColor=none;fillColor=none;spacingLeft=4;fontSize=12;verticalAlign=top;resizable=0;rotatable=0;part=1;html=1;" parent="vo71ZsBOp8VPdSGQfIhG-23" vertex="1">
          <mxGeometry y="50" width="215" height="149" as="geometry" />
        </mxCell>
        <mxCell id="vo71ZsBOp8VPdSGQfIhG-30" value="" style="edgeStyle=entityRelationEdgeStyle;fontSize=12;html=1;endArrow=ERoneToMany;rounded=0;entryX=0;entryY=0.75;entryDx=0;entryDy=0;" parent="1" source="vo71ZsBOp8VPdSGQfIhG-11" target="vo71ZsBOp8VPdSGQfIhG-2" edge="1">
          <mxGeometry width="100" height="100" relative="1" as="geometry">
            <mxPoint x="-315" y="-66" as="sourcePoint" />
            <mxPoint x="-215" y="-166" as="targetPoint" />
          </mxGeometry>
        </mxCell>
        <mxCell id="vo71ZsBOp8VPdSGQfIhG-36" value="" style="edgeStyle=entityRelationEdgeStyle;fontSize=12;html=1;endArrow=ERoneToMany;rounded=0;exitX=1;exitY=0.5;exitDx=0;exitDy=0;entryX=0;entryY=0;entryDx=0;entryDy=0;" parent="1" source="vo71ZsBOp8VPdSGQfIhG-14" target="vo71ZsBOp8VPdSGQfIhG-17" edge="1">
          <mxGeometry width="100" height="100" relative="1" as="geometry">
            <mxPoint x="554" y="36" as="sourcePoint" />
            <mxPoint x="654" y="-64" as="targetPoint" />
            <Array as="points">
              <mxPoint x="689" y="56" />
            </Array>
          </mxGeometry>
        </mxCell>
        <mxCell id="vo71ZsBOp8VPdSGQfIhG-37" value="" style="edgeStyle=entityRelationEdgeStyle;fontSize=12;html=1;endArrow=ERoneToMany;rounded=0;exitX=0;exitY=0.25;exitDx=0;exitDy=0;entryX=1;entryY=0.25;entryDx=0;entryDy=0;" parent="1" source="vo71ZsBOp8VPdSGQfIhG-14" target="vo71ZsBOp8VPdSGQfIhG-2" edge="1">
          <mxGeometry width="100" height="100" relative="1" as="geometry">
            <mxPoint x="305" y="-93" as="sourcePoint" />
            <mxPoint x="405" y="-193" as="targetPoint" />
          </mxGeometry>
        </mxCell>
        <mxCell id="vo71ZsBOp8VPdSGQfIhG-38" value="" style="edgeStyle=entityRelationEdgeStyle;fontSize=12;html=1;endArrow=ERoneToMany;rounded=0;exitX=1;exitY=0.25;exitDx=0;exitDy=0;" parent="1" source="vo71ZsBOp8VPdSGQfIhG-24" target="vo71ZsBOp8VPdSGQfIhG-17" edge="1">
          <mxGeometry width="100" height="100" relative="1" as="geometry">
            <mxPoint x="305" y="62" as="sourcePoint" />
            <mxPoint x="405" y="-38" as="targetPoint" />
          </mxGeometry>
        </mxCell>
        <mxCell id="vo71ZsBOp8VPdSGQfIhG-39" value="" style="edgeStyle=entityRelationEdgeStyle;fontSize=12;html=1;endArrow=ERoneToMany;rounded=0;entryX=1.011;entryY=0.647;entryDx=0;entryDy=0;entryPerimeter=0;exitX=0.008;exitY=0.438;exitDx=0;exitDy=0;exitPerimeter=0;" parent="1" source="vo71ZsBOp8VPdSGQfIhG-24" target="vo71ZsBOp8VPdSGQfIhG-2" edge="1">
          <mxGeometry width="100" height="100" relative="1" as="geometry">
            <mxPoint x="64" y="-2" as="sourcePoint" />
            <mxPoint x="252" y="-184" as="targetPoint" />
          </mxGeometry>
        </mxCell>
        <mxCell id="vo71ZsBOp8VPdSGQfIhG-40" value="" style="edgeStyle=entityRelationEdgeStyle;fontSize=12;html=1;endArrow=ERoneToMany;rounded=0;exitX=1;exitY=0.25;exitDx=0;exitDy=0;entryX=0;entryY=0.25;entryDx=0;entryDy=0;" parent="1" source="vo71ZsBOp8VPdSGQfIhG-8" target="vo71ZsBOp8VPdSGQfIhG-2" edge="1">
          <mxGeometry width="100" height="100" relative="1" as="geometry">
            <mxPoint x="-318" y="-218" as="sourcePoint" />
            <mxPoint x="-218" y="-318" as="targetPoint" />
          </mxGeometry>
        </mxCell>
        <mxCell id="vo71ZsBOp8VPdSGQfIhG-41" value="" style="edgeStyle=entityRelationEdgeStyle;fontSize=12;html=1;endArrow=ERoneToMany;rounded=0;exitX=0;exitY=0.5;exitDx=0;exitDy=0;entryX=0.5;entryY=1;entryDx=0;entryDy=0;" parent="1" source="vo71ZsBOp8VPdSGQfIhG-9" target="vo71ZsBOp8VPdSGQfIhG-2" edge="1">
          <mxGeometry width="100" height="100" relative="1" as="geometry">
            <mxPoint x="-316" y="-176" as="sourcePoint" />
            <mxPoint x="-216" y="-276" as="targetPoint" />
            <Array as="points">
              <mxPoint x="-274" y="-246" />
            </Array>
          </mxGeometry>
        </mxCell>
      </root>
    </mxGraphModel>
  </diagram>
</mxfile>
